<svg width="22" height="22" viewBox="0 0 22 22" fill="none" xmlns="http://www.w3.org/2000/svg">
<path d="M10.8907 0C4.88993 0 0 4.88993 0 10.8907C0 16.8915 4.88993 21.7814 10.8907 21.7814C16.8915 21.7814 21.7814 16.8915 21.7814 10.8907C21.7814 4.88993 16.8915 0 10.8907 0ZM16.0965 8.38585L9.92144 14.5609C9.76897 14.7133 9.56204 14.8005 9.34423 14.8005C9.12641 14.8005 8.91949 14.7133 8.76702 14.5609L5.68495 11.4788C5.36912 11.163 5.36912 10.6402 5.68495 10.3244C6.00078 10.0086 6.52353 10.0086 6.83937 10.3244L9.34423 12.8293L14.9421 7.23143C15.2579 6.9156 15.7806 6.9156 16.0965 7.23143C16.4123 7.54726 16.4123 8.05912 16.0965 8.38585Z" fill="white"/>
</svg>
